HIERARCHY
ROOT Hips
{
  OFFSET 279.157 85.6768 304.565
  CHANNELS 6 Xposition Yposition Zposition Zrotation Xrotation Yrotation
  JOINT LeftUpLeg
  {
    OFFSET 8.64259 1.95398 -2.38835
    CHANNELS 3 Zrotation Xrotation Yrotation
    JOINT LeftLeg
    {
      OFFSET 43.7702 0 0
      CHANNELS 3 Zrotation Xrotation Yrotation
      JOINT LeftFoot
      {
        OFFSET 40.6238 0 0
        CHANNELS 3 Zrotation Xrotation Yrotation
        JOINT LeftToeBase
        {
          OFFSET 12.7242 0 0
          CHANNELS 3 Zrotation Xrotation Yrotation
          End Site
          {
            OFFSET 0 0 0
          }
        }
      }
    }
  }
  JOINT RightUpLeg
  {
    OFFSET -8.2249 1.95398 -2.59336
    CHANNELS 3 Zrotation Xrotation Yrotation
    JOINT RightLeg
    {
      OFFSET 43.5653 0 0
      CHANNELS 3 Zrotation Xrotation Yrotation
      JOINT RightFoot
      {
        OFFSET 40.6238 0 0
        CHANNELS 3 Zrotation Xrotation Yrotation
        JOINT RightToeBase
        {
          OFFSET 12.7242 0 0
          CHANNELS 3 Zrotation Xrotation Yrotation
          End Site
          {
            OFFSET 0 0 0
          }
        }
      }
    }
  }
  JOINT Spine
  {
    OFFSET 0.165834 0.87714 6.61349
    CHANNELS 3 Zrotation Xrotation Yrotation
    JOINT Spine1
    {
      OFFSET 7.38963 1.71661e-005 0
      CHANNELS 3 Zrotation Xrotation Yrotation
      JOINT Spine2
      {
        OFFSET 11.9445 1.14441e-005 0
        CHANNELS 3 Zrotation Xrotation Yrotation
        JOINT Spine3
        {
          OFFSET 14.7254 4.19617e-005 0
          CHANNELS 3 Zrotation Xrotation Yrotation
          JOINT Spine4
          {
            OFFSET 10.9679 0 0
            CHANNELS 3 Zrotation Xrotation Yrotation
            JOINT RightShoulder
            {
              OFFSET 2.46616 -1.6653 3.69651
              CHANNELS 3 Zrotation Xrotation Yrotation
              JOINT RightArm
              {
                OFFSET 13.0012 0 0
                CHANNELS 3 Zrotation Xrotation Yrotation
                JOINT RightForeArm
                {
                  OFFSET 28.7848 1.52588e-005 0
                  CHANNELS 3 Zrotation Xrotation Yrotation
                  JOINT RightHand
                  {
                    OFFSET 26.5688 1.52588e-005 0
                    CHANNELS 3 Zrotation Xrotation Yrotation
                    End Site
                    {
                      OFFSET 0 0 0
                    }
                  }
                }
              }
            }
            JOINT LeftShoulder
            {
              OFFSET 2.38034 -1.29275 -3.7523
              CHANNELS 3 Zrotation Xrotation Yrotation
              JOINT LeftArm
              {
                OFFSET 16.3182 6.10351e-005 0
                CHANNELS 3 Zrotation Xrotation Yrotation
                JOINT LeftForeArm
                {
                  OFFSET 27.0901 0 0
                  CHANNELS 3 Zrotation Xrotation Yrotation
                  JOINT LeftHand
                  {
                    OFFSET 24.5451 1.52588e-005 0
                    CHANNELS 3 Zrotation Xrotation Yrotation
                    End Site
                    {
                      OFFSET 0 0 0
                    }
                  }
                }
              }
            }
            JOINT Neck
            {
              OFFSET 5.0226 -0.0266342 0
              CHANNELS 3 Zrotation Xrotation Yrotation
              JOINT Head
              {
                OFFSET 6.69364 2.86102e-005 0
                CHANNELS 3 Zrotation Xrotation Yrotation
                End Site
                {
                  OFFSET 0 0 0
                }
              }
            }
          }
        }
      }
    }
  }
}
MOTION
Frames:	15
Frame Time:	0.0416667
38.6344 99.9033 20.3586 101.665 -60.1937 104.495 -174.137 -8.20087 88.3378 -20.8789 26.7525 0.379936 78.9798 12.772 -0.175133 10.5193 -11.9874 4.08937 177.981 15.2503 92.2598 -14.5265 -6.70823 -0.791564 62.8464 -2.29753 -1.0735 24.9408 0.558912 4.67739 -0.796967 8.06155 -90.5066 10.7438 -1.82052 -0.839949 -0.926105 -1.85571 -0.758992 -23.4666 -1.48392 -1.34831 -3.45394 -1.48392 -1.34831 87.1842 -33.8709 -110.606 41.2803 -2.23162 7.35628 2.32889 -23.6598 -12.9262 -23.0329 -0.483097 -9.02872 -89.2979 -48.6774 79.5099 -18.4842 9.91988 -31.5552 3.5116 8.26169 -13.1797 3.98159 -0.345294 -8.88869 4.99114 -0.899958 -11.2138 -3.62154 1.13903 2.16354 
42.0963 97.908 29.02 99.7082 -56.2178 102.395 -171.388 -14.0123 92.1419 -20.6184 31.9817 0.0733378 82.4304 15.6217 -0.299619 12.202 -11.0279 4.33697 177.227 17.1821 94.5171 -5.94369 -4.33877 2.03059 63.5094 -1.93858 1.44833 29.9104 -0.625058 2.01757 -0.857871 8.07126 -90.5318 10.7236 -1.95344 -0.877992 -0.946106 -1.99019 -0.791136 -23.4874 -1.59928 -1.42456 -3.47476 -1.59927 -1.42456 87.4241 -34.9579 -109.724 40.9856 -1.0373 8.68102 3.84755 -23.9822 -10.4032 -21.0173 -0.516519 -9.32575 -89.2372 -48.4646 79.5544 -20.3202 9.90659 -33.714 6.35015 12.916 -18.5977 2.84225 -0.376074 -10.8159 5.97477 -1.45181 -13.6079 -3.76902 1.13734 2.66097 
47.1646 97.0468 38.335 99.8485 -52.4948 102.793 -170.326 -18.8234 94.4927 -24.1209 34.5698 2.58474 76.8868 12.9381 2.71524 18.6333 -6.50955 2.8406 178.584 19.9763 96.1258 -17.8335 -10.8406 0.468279 57.4354 1.68961 -0.712471 22.1354 1.38374 4.74071 -1.00698 8.0415 -90.7008 10.7787 -2.32844 -1.17796 -0.890594 -2.37804 -1.07431 -23.4332 -1.86681 -1.82337 -3.42051 -1.86681 -1.82338 88.2771 -35.7988 -107.853 39.9795 -1.69695 7.05926 4.7744 -24.0497 -7.52231 -20.9812 -0.928188 -6.56067 -89.4755 -49.8887 79.4896 -23.5201 9.1912 -30.2341 7.19489 16.195 -17.7458 4.11617 -0.405068 -9.91459 6.56724 -1.00342 -10.9321 -4.36442 1.14556 0.847262 
52.6993 97.2937 47.0024 100.228 -49.2297 104.095 -171.452 -11.2235 96.5097 -43.5022 35.0825 5.80119 61.0373 1.04648 1.00912 20.9551 -3.59647 -2.10074 177.5 18.833 97.4447 -29.7086 -7.85935 1.21463 61.7491 -0.700709 -1.04148 21.3619 1.97739 2.94071 -0.897688 7.96071 -91.0297 10.9307 -2.26345 -1.83501 -0.739429 -2.342 -1.73362 -23.273 -1.60749 -2.43028 -3.26035 -1.6075 -2.43028 88.4314 -34.0818 -108.208 40.111 -2.20909 5.51963 4.27198 -23.2371 -8.70195 -21.0475 -0.55963 -8.75375 -90.0242 -50.2318 78.7419 -25.9516 12.4741 -24.6122 1.60103 13.5999 -7.56363 1.01748 -0.158352 -7.42211 6.70334 -0.796686 -7.83241 -4.81797 0.731588 1.227 
57.0512 98.1437 53.938 101.818 -46.5471 105.369 -172.941 2.27298 97.8472 -60.5304 21.9056 5.10216 54.3438 -3.92416 -3.4063 15.5016 -8.60839 3.48354 177.206 12.3858 98.2504 -31.5271 -6.25294 1.58381 66.8856 -3.93085 -2.98402 24.3463 1.08908 2.54753 -0.455368 8.18395 -91.1087 10.4867 -1.41568 -2.07698 -1.185 -1.5057 -2.01268 -23.7091 -0.726207 -2.40624 -3.69648 -0.726214 -2.40625 87.726 -33.7276 -109.66 37.284 -4.97802 0.257202 3.29816 -23.6252 -11.4275 -23.1323 -0.458852 -9.15142 -90.8611 -51.5731 77.7966 -24.841 12.6775 -18.986 -1.34132 19.8166 -3.19486 -4.31197 -0.0255401 -8.52946 8.03659 -1.29652 -6.56195 -3.67958 0.0995492 0.256747 
61.17 99.7332 59.821 101.136 -45.5224 101.972 -174.153 14.3521 92.2303 -58.7505 9.19896 2.85891 67.0671 5.05125 1.83948 14.1506 -9.97762 4.7245 176.729 5.6409 96.1786 -27.553 -5.17492 0.889815 69.4466 -5.24729 -2.58831 24.7623 1.04343 2.03185 0.0963455 8.2301 -90.7457 10.4119 -0.149797 -1.4681 -1.25984 -0.214244 -1.46009 -23.7884 0.298321 -1.44525 -3.77575 0.298298 -1.44526 86.9597 -33.2786 -111.265 32.7461 -5.99068 -6.87766 2.70169 -24.2629 -12.2431 -24.5091 -0.578504 -8.49819 -90.5621 -52.1334 78.3569 -24.284 11.2758 -10.3999 -0.330982 13.7049 -5.35439 -1.10682 -0.115366 -6.91404 7.28606 -2.07128 -6.12494 -2.20302 -0.790901 -0.470384 
66.0338 100.356 65.4785 99.5833 -46.7615 97.2554 -175.547 19.7615 86.8457 -38.058 3.03985 -0.168586 68.48 6.43216 1.24853 12.2183 -10.3166 2.72458 175.685 0.864535 93.0191 -25.5534 -7.70311 -0.389363 72.1991 -6.63921 -4.07521 26.7589 0.361058 2.24878 0.706945 8.17481 -90.2476 10.5279 1.29442 -0.607573 -1.14254 1.26645 -0.663972 -23.6827 1.41715 -0.190394 -3.67004 1.41718 -0.190385 86.9828 -30.8219 -112.304 30.0655 -4.88287 -12.6609 1.32148 -25.39 -15.2353 -24.7085 -0.750904 -7.84541 -89.8128 -52.2021 79.4639 -21.5756 11.0188 -3.23875 0.101732 9.1513 -8.63125 -0.239291 -0.145758 -7.33574 5.93522 -2.36267 -3.52765 -1.47131 -1.65499 -2.25683 
71.9036 99.6119 71.7704 100.93 -47.3846 96.9093 -177.568 17.0795 85.3012 -10.4364 3.74218 -1.41905 62.2502 2.88505 -1.28733 16.1664 -9.23537 6.01741 174.734 -6.02003 91.2642 -24.9515 -7.89235 -1.20811 76.2137 -8.78597 -5.01278 26.9125 0.312031 2.23656 1.05401 8.30697 -90.0501 10.2634 2.0769 -0.277703 -1.40595 2.06268 -0.368881 -23.9543 2.06431 0.359619 -3.94163 2.06431 0.35961 86.5227 -29.5109 -113.808 26.0029 -3.39206 -16.9524 -2.07101 -26.0996 -20.0727 -26.4297 -0.497058 -9.30364 -89.5283 -53.7703 80.1857 -19.0469 8.03514 2.49769 1.59588 7.8317 -10.6496 -0.966506 -0.133178 -7.87605 4.28031 -2.07594 -0.0769837 -0.797094 -2.05438 -3.26895 
78.9673 97.7852 79.1266 103.023 -48.9051 97.9636 -178.431 17.2929 85.3682 -6.89057 1.08197 -1.31056 62.5328 2.57953 -1.11535 13.6899 -10.1139 4.33333 172.676 -14.1194 88.6316 -24.3057 -9.74185 -1.70331 78.7551 -10.4809 -4.71152 30.8203 -0.797582 0.791808 1.34386 8.36299 -89.9597 10.1488 2.69615 -0.146321 -1.51939 2.68711 -0.264936 -24.0757 2.61539 0.671309 -4.06305 2.6154 0.671313 85.9541 -29.8517 -114.749 23.9309 -0.741334 -19.1752 -4.48726 -28.2016 -23.6522 -29.0409 -0.454816 -9.86629 -89.2952 -56.396 81.0016 -17.4499 6.13524 5.83929 1.57953 2.17612 -9.08367 -2.59172 -0.0872265 -7.01827 2.02743 -1.72432 1.94323 0.332074 -2.05917 -2.60549 
87.1604 97.3562 87.6494 103.125 -51.377 95.6717 -176.234 18.0845 84.2036 -16.7974 3.60192 -3.20051 56.5728 -2.42607 -1.57385 13.8336 -10.4269 5.3015 170.215 -17.3867 84.0935 -27.6503 -11.563 -3.81782 71.6691 -6.39392 -4.32557 41.3357 -4.23562 2.02808 1.5719 8.17594 -89.4752 10.5179 3.37202 0.73972 -1.14876 3.4013 0.59042 -23.7117 2.99372 1.71973 -3.69904 2.9937 1.71973 85.0407 -30.6774 -116.083 28.3005 -0.250264 -16.907 -5.19283 -26.2315 -24.1602 -30.8612 -0.267226 -9.90018 -88.5031 -56.983 82.2101 -17.331 5.41675 5.53006 1.21 3.20434 -4.98312 -4.50102 -0.0607062 -6.02101 2.25093 -1.69961 1.01866 -1.62559 -1.84303 -2.70152 
95.1393 98.1996 95.4733 104.551 -52.5457 93.9034 -174.331 14.1413 81.2023 -24.8049 4.87464 -4.89875 63.6104 1.8682 -0.179873 10.5576 -12.304 4.81851 169.555 -11.1655 79.1211 -45.1281 -14.4853 -5.91315 59.8457 0.107815 -2.8031 30.6166 -1.31428 6.24865 1.47207 8.05083 -89.015 10.7477 3.38546 1.64657 -0.919707 3.45465 1.49584 -23.4715 2.73418 2.58819 -3.45888 2.73418 2.58819 85.7235 -30.9228 -114.665 34.0161 -6.3074 -14.0062 -2.10966 -27.8766 -19.4738 -24.4447 -0.331328 -11.1503 -89.0106 -56.9817 81.5043 -17.2957 5.63937 3.51573 0.948486 6.6975 -3.93376 -6.19762 0.0023865 -7.15189 1.79875 -1.60007 -0.397461 -2.57215 -1.50043 -3.08128 
101.023 99.2344 101.712 105.549 -54.6375 93.9875 -174.539 7.77434 80.28 -24.9531 2.87567 -5.24905 68.5012 4.94218 -0.169443 13.269 -11.0529 5.92505 174.504 2.0028 79.9767 -63.5259 -15.0424 -7.17174 59.9578 -0.55329 -2.43606 21.1792 1.38902 6.10775 1.24753 8.16534 -88.8751 10.5165 3.00148 1.96725 -1.15233 3.08514 1.83318 -23.6932 2.27169 2.77828 -3.68052 2.2717 2.77828 85.1788 -31.6923 -115.32 37.4406 -8.9861 -10.0129 1.5789 -28.5842 -14.7071 -22.9013 -0.6184 -9.92254 -89.5692 -56.5741 80.6546 -15.2869 7.50143 -4.90585 0.350648 10.257 -4.67568 -2.00429 -0.0962659 -6.34672 4.31377 -0.814288 -0.292373 -2.4697 -0.734235 -3.25089 
105.888 100.591 107.546 104.171 -53.6491 96.7482 -175.096 1.92482 82.9613 -21.7577 4.79105 -3.12388 70.5775 6.89292 1.82659 14.7709 -9.81574 5.26611 177.78 11.9928 87.1337 -60.7113 -8.21757 -5.0292 66.9701 -4.7469 -3.4541 21.5191 1.7509 3.85258 0.686192 8.13447 -89.3657 10.5986 1.65847 1.11367 -1.07175 1.70588 1.03959 -23.6084 1.24716 1.56061 -3.59577 1.24714 1.5606 85.6023 -31.9156 -114.418 40.2597 -9.80116 -4.92849 3.76517 -26.5163 -12.1845 -21.2807 -0.704693 -8.86075 -89.4953 -54.6679 80.4054 -12.8146 9.8161 -14.7884 -0.00122367 7.98249 -6.85749 0.251899 -0.136717 -6.16499 3.94682 0.27511 -0.921519 -1.46431 0.419752 -1.88188 
110.622 100.822 113.912 102.22 -50.1879 98.6316 -174.502 -2.96076 86.5805 -21.5283 7.83602 -1.0144 74.5337 8.83575 0.680272 17.07 -9.22921 7.51173 178.111 16.1688 92.7521 -39.3034 -4.69188 -1.91681 65.9107 -4.17387 -3.23421 22.9597 1.18708 4.49175 0.0322275 8.12694 -89.8185 10.621 0.147641 0.34646 -1.05006 0.162756 0.339622 -23.5847 0.0367147 0.374825 -3.57202 0.0366944 0.374816 85.8492 -32.4558 -113.702 41.9945 -6.95426 2.1719 3.6512 -25.2128 -12.4784 -22.6734 -0.542091 -9.21592 -89.4858 -50.5093 79.5974 -12.6503 9.38887 -23.264 1.73237 8.8678 -10.8358 0.650518 -0.193385 -8.3329 2.79385 0.285035 -4.03014 -0.842807 0.931985 -0.648378 
115.994 99.5816 121.276 100.336 -48.1195 97.6935 -173.249 -8.08609 88.4786 -21.3098 10.043 -0.499525 79.8612 12.0652 -0.0221593 18.4829 -9.53771 10.7227 178.218 13.941 93.9982 -8.3298 -2.82999 0.199825 62.529 -3.3651 -1.91928 24.7287 0.823128 3.41376 -0.208679 8.10077 -89.8538 10.6728 -0.348184 0.322434 -0.998154 -0.333654 0.337431 -23.5335 -0.429014 0.202875 -3.5209 -0.428996 0.202876 86.6736 -33.5215 -111.696 43.8374 -3.11054 7.76363 2.64552 -22.5315 -12.5508 -22.2062 -0.395544 -9.31255 -89.9328 -48.5082 78.505 -10.1815 7.61883 -31.7665 3.99732 12.2198 -14.8599 0.185826 -0.234084 -10.7925 2.79636 -0.803834 -8.34655 -0.744339 0.579622 0.493571 
